<?xml version="1.0" encoding="utf-8"?>
<!-- Generator: Adobe Illustrator 27.4.0, SVG Export Plug-In . SVG Version: 6.00 Build 0)  -->
<svg version="1.1" id="레이어_1" xmlns="http://www.w3.org/2000/svg" xmlns:xlink="http://www.w3.org/1999/xlink" x="0px"
	 y="0px" viewBox="0 0 1920 655.14" style="enable-background:new 0 0 1920 655.14;" xml:space="preserve">
<g>
	<path d="M0,655.14V28.91h394.73v54.35H59.62v228.96h299.97v56.14H59.62v230.69h347.32v56.08H0z"/>
	<path d="M601.71,0.87c11.21,16.39,24.85,36.35,41.24,60.07c16.39,23.66,34.23,49.34,53.52,76.74
		c19.29,27.47,39.18,55.57,59.62,84.24c20.5,28.56,40.25,56.26,59.23,82.86c18.97,26.6,36.44,51.01,52.22,73.17
		c15.7,22.27,28.59,40.45,38.57,54.47c5.25-7.68,14.72-21.35,28.51-41.26c13.72-19.91,29.81-42.93,48.26-69.3
		c18.44-26.31,38.34-54.82,60.07-85.57c21.65-30.64,42.84-60.7,63.57-90.3c20.82-29.54,40.33-56.95,58.78-82.4
		c18.45-25.45,33.47-46.34,45.12-62.72v654.27h-63.04V208.71c0-5.25,0.23-10.85,0.84-16.62c0.53-5.83,0.84-10.79,0.84-14.95
		c-9.98,14.02-21.72,30.81-35.51,50.43c-13.81,19.56-28.22,40.45-43.46,62.72c-15.16,22.27-30.64,44.89-46.42,67.97
		c-15.78,23.14-31.03,45.47-45.67,67.11c-14.63,21.64-28.2,41.77-40.78,60.53c-12.58,18.75-22.95,34.16-31.1,46.51
		c-8.24-10.5-19.29-25.62-33.4-45.24c-14.02-19.56-29.35-41.55-46.05-65.78c-16.62-24.23-34-49.39-52.15-75.36
		c-18.13-26.02-34.91-50.49-50.46-73.28c-15.48-22.85-29.2-42.87-41.24-60.07c-11.97-17.25-19.97-29.14-24-35.55
		c0,4.16,0.38,9.12,1.21,14.95c0.92,5.77,1.37,11.37,1.37,16.62v446.43h-59.69V0.87z"/>
	<path d="M1859.47,655.14c-11.58-26.83-25.39-59.89-41.1-99.07c-15.84-39.24-32.24-80.67-49.16-124.58h-240.35
		c-16.93,43.91-33.32,85.34-49.1,124.58c-15.78,39.18-29.57,72.24-41.24,99.07h-59.68c8.76-21.06,20.5-48.93,35.14-83.72
		c14.63-34.79,30.41-72.93,47.33-114.48c17.01-41.49,34.46-84.65,52.68-129.37c18.15-44.78,35.67-87.88,52.6-129.37
		c16.92-41.49,32.63-79.57,46.9-114.07c14.32-34.45,26.14-62.49,35.51-84.13c8.77,21.64,20.51,49.68,35.14,84.13
		c14.57,34.51,30.35,72.59,47.34,114.07c16.93,41.49,34.61,84.59,53.07,129.37c18.36,44.72,36.12,87.88,53.06,129.37
		c16.99,41.55,32.62,79.69,46.87,114.48c14.34,34.8,26.24,62.66,35.53,83.72H1859.47z M1640.22,153.43
		c-11.65,27.58-25.6,61.16-41.62,100.86c-16.08,39.81-32.63,81.59-49.55,125.5h199.96c-17.54-43.91-34.23-85.69-50.01-125.5
		c-15.78-39.7-29.5-73.28-41.24-100.86c-1.14-2.37-2.53-6.29-4.34-11.77c-1.75-5.6-3.27-10.68-4.43-15.41
		c-1.14,4.73-2.65,9.81-4.41,15.41C1642.91,147.14,1641.45,151.06,1640.22,153.43z"/>
</g>
</svg>
